<svg xmlns="http://www.w3.org/2000/svg" xmlns:xlink="http://www.w3.org/1999/xlink" viewBox="0 0 1080 1080" width="1080" height="1080" preserveAspectRatio="xMidYMid meet" style="width: 100%; height: 100%; transform: translate3d(0px, 0px, 0px); content-visibility: visible;"><defs><clipPath id="__lottie_element_6347"><rect width="1080" height="1080" x="0" y="0"></rect></clipPath><g id="__lottie_element_6398"><g clip-path="url(#__lottie_element_6399)" transform="matrix(0.9963974952697754,0.08480613678693771,-0.0848061740398407,0.9963970184326172,36.6702880859375,-58.08941650390625)" opacity="1" style="display: block;"><g transform="matrix(1,0,0,1,-2,0)" opacity="1" style="display: block;"><g opacity="1" transform="matrix(1,0,0,1,540,540)"><g opacity="1" transform="matrix(1,0,0,1,0,0)"><path fill="rgb(255,255,255)" fill-opacity="1" d=" M-80.5,-4.65500020980835 C-80.5,-21.100000381469727 -65.37200164794922,-44.88199996948242 -34.31399917602539,-44.88199996948242 C2.1050000190734863,-44.88199996948242 13.739999771118164,-18.06399917602539 13.739999771118164,-4.65500020980835 C13.739999771118164,-4.65500020980835 13.739999771118164,15.585000038146973 13.739999771118164,15.585000038146973 C13.739999771118164,51.63800048828125 -12.324000358581543,62.01100158691406 -34.31399917602539,62.01100158691406 C-71.54299926757812,62.01100158691406 -80.61000061035156,31.059999465942383 -80.5,15.585000038146973 C-80.5,15.585000038146973 -80.5,-4.65500020980835 -80.5,-4.65500020980835z"></path></g></g><g opacity="1" transform="matrix(1,0,0,1,540,540.0009765625)"><g opacity="1" transform="matrix(1,0,0,1,0,0)"><path fill="rgb(255,255,255)" fill-opacity="1" d=" M80.11100006103516,-16.600000381469727 C80.11100006103516,-44.891998291015625 92.01399993896484,-57.27799987792969 113.90799713134766,-60.64500045776367 C125.31600189208984,-62.400001525878906 141.79800415039062,-54.88199996948242 141.79800415039062,-28.763999938964844 C141.79800415039062,-18.534000396728516 141.3509979248047,-9.67199993133545 140.43099975585938,-2.007999897003174 C135.4029998779297,39.87300109863281 117.06099700927734,46.81700134277344 101.2020034790039,46.81700134277344 C86.67500305175781,46.81700134277344 80.11100006103516,31.701000213623047 80.11100006103516,19.535999298095703 C80.11100006103516,19.535999298095703 80.11100006103516,-16.600000381469727 80.11100006103516,-16.600000381469727z"></path></g></g></g></g></g><clipPath id="__lottie_element_6399"><path d="M0,0 L1080,0 L1080,1080 L0,1080z"></path></clipPath><mask id="__lottie_element_6398_1" mask-type="alpha"><use xlink:href="#__lottie_element_6398"></use></mask><clipPath id="__lottie_element_6412"><path d="M0,0 L1080,0 L1080,1080 L0,1080z"></path></clipPath></defs><g clip-path="url(#__lottie_element_6347)"><g transform="matrix(1,0,0,1,534.5505981445312,540.4541625976562)" opacity="0.3" style="display: block;"><g opacity="1" transform="matrix(1,0,0,1,0,0)"><path fill="rgb(175,175,175)" fill-opacity="1" d=" M252.94500732421875,183.22000122070312 C262,279.5190124511719 161.2989959716797,366.8659973144531 28.023000717163086,378.31201171875 C-105.25299835205078,389.75299072265625 -220.63499450683594,320.9630126953125 -229.69000244140625,224.66700744628906 C-238.7449951171875,128.36500549316406 -138.04400634765625,41.01900100708008 -4.76800012588501,29.575000762939453 C128.50799560546875,18.1299991607666 243.88999938964844,86.91999816894531 252.94500732421875,183.22000122070312z"></path></g></g><g transform="matrix(1,0,0,1,0,0)" opacity="1" style="display: block;"><g opacity="1" transform="matrix(1,0,0,1,540,540)"><g opacity="1" transform="matrix(1,0,0,1,0,0)"><path fill="rgb(255,120,120)" fill-opacity="1" d=" M193.3070068359375,213.83099365234375 C193.3070068359375,213.83099365234375 86.49600219726562,334.1579895019531 86.49600219726562,334.1579895019531 C84.41500091552734,336.4960021972656 76.83599853515625,339.5220031738281 73.75199890136719,338.7030029296875 C73.75199890136719,338.7030029296875 -148.7779998779297,278.77801513671875 -148.7779998779297,278.77801513671875 C-148.7779998779297,278.77801513671875 -160.49899291992188,275.1780090332031 -160.49899291992188,275.1780090332031 C-165.2220001220703,273.1159973144531 -166.63299560546875,268.718994140625 -170.21400451660156,265.1929931640625 C-170.55499267578125,262.4309997558594 -169.41299438476562,259.4949951171875 -166.5679931640625,257.7090148925781 C-166.5679931640625,257.7090148925781 -103.28399658203125,217.86399841308594 -103.28399658203125,217.86399841308594 C-103.28399658203125,217.86399841308594 -3.0450000762939453,154.73599243164062 -3.0450000762939453,154.73599243164062 C-1.093000054359436,153.51199340820312 1.3179999589920044,153.13400268554688 3.5739998817443848,153.71400451660156 C3.5739998817443848,153.71400451660156 189.1649932861328,201.08999633789062 189.1649932861328,201.08999633789062 C195.01100158691406,202.58099365234375 197.22900390625,209.41200256347656 193.3070068359375,213.83099365234375z"></path></g></g><g opacity="1" transform="matrix(1,0,0,1,540,540)"><g opacity="1" transform="matrix(1,0,0,1,0,0)"><path fill="rgb(255,120,120)" fill-opacity="1" d=" M-186.4219970703125,237.42300415039062 C-186.4219970703125,259.8940124511719 -168.0959930419922,278.1109924316406 -145.48899841308594,278.1109924316406 C-122.88200378417969,278.1109924316406 -104.55599975585938,259.8940124511719 -104.55599975585938,237.42300415039062 C-104.55599975585938,214.95199584960938 -122.88200378417969,196.73599243164062 -145.48899841308594,196.73599243164062 C-168.0959930419922,196.73599243164062 -186.4219970703125,214.95199584960938 -186.4219970703125,237.42300415039062z"></path></g></g><g opacity="1" transform="matrix(1,0,0,1,540,540)"><g opacity="1" transform="matrix(1,0,0,1,0,0)"><path fill="rgb(247,247,247)" fill-opacity="1" d=" M174.76100158691406,213.5749969482422 C178.25900268554688,209.51499938964844 176.96800231933594,202.76800537109375 176.96800231933594,197.41000366210938 C176.96800231933594,197.41000366210938 176.96800231933594,155.125 176.96800231933594,155.125 C176.96800231933594,155.125 74.2239990234375,259.5260009765625 74.2239990234375,259.5260009765625 C74.2239990234375,259.5260009765625 -139.89700317382812,214.00100708007812 -139.89700317382812,214.00100708007812 C-156.55099487304688,209.968994140625 -172.58900451660156,222.58099365234375 -172.58900451660156,239.71400451660156 C-172.58900451660156,239.72300720214844 -172.58900451660156,239.7239990234375 -172.58900451660156,239.73300170898438 C-172.58900451660156,251.69200134277344 -164.552001953125,262.1679992675781 -152.9980010986328,265.2799987792969 C-152.9980010986328,265.2799987792969 72.29399871826172,321.2699890136719 72.29399871826172,321.2699890136719 C75.59400177001953,322.0899963378906 79.0739974975586,320.97900390625 81.28800201416016,318.39898681640625 C81.28800201416016,318.39898681640625 174.76100158691406,213.5749969482422 174.76100158691406,213.5749969482422z"></path></g></g><g opacity="1" transform="matrix(1,0,0,1,540,540.0009765625)"><g opacity="1" transform="matrix(1,0,0,1,0,0)"><path fill="rgb(255,120,120)" fill-opacity="1" d=" M57.590999603271484,265.63800048828125 C57.590999603271484,265.63800048828125 -143.5590057373047,211.83700561523438 -143.5590057373047,211.83700561523438 C-143.5590057373047,211.83700561523438 -175.23500061035156,209.8280029296875 -175.23500061035156,209.8280029296875 C-175.23500061035156,209.8280029296875 -88.99199676513672,111.99299621582031 -88.99199676513672,111.99299621582031 C-88.99199676513672,111.99299621582031 168.46499633789062,158.63900756835938 168.46499633789062,158.63900756835938 C168.46499633789062,158.63900756835938 77.34100341796875,262.0090026855469 77.34100341796875,262.0090026855469 C70.93299865722656,268.79998779296875 66.62300109863281,268.0069885253906 57.590999603271484,265.63800048828125z"></path></g></g></g><g transform="matrix(1,0,0,1,0,0)" opacity="1" style="display: block;"><g opacity="1" transform="matrix(1,0,0,1,540,540)"><g opacity="1" transform="matrix(1,0,0,1,0,0)"><path fill="rgb(255,200,0)" fill-opacity="1" d=" M201.00167846679688,163.3715362548828 C201.00167846679688,184.72653198242188 182.85467529296875,202.0425262451172 160.4846649169922,202.0425262451172 C158.90167236328125,202.0425262451172 157.34567260742188,201.95452880859375 155.80767822265625,201.78652954101562 C151.5396728515625,201.3195343017578 147.4686737060547,200.217529296875 143.70767211914062,198.57752990722656 C139.14666748046875,196.6025390625 135.02967834472656,193.82553100585938 131.5706787109375,190.4485321044922 C124.38667297363281,183.4745330810547 119.9676742553711,173.91653442382812 119.9676742553711,163.3715362548828 C119.9676742553711,142.02552795410156 138.1056671142578,124.70953369140625 160.4846649169922,124.70953369140625 C175.9376678466797,124.70953369140625 189.3816680908203,132.9705352783203 196.2096710205078,145.1205291748047 C199.2686767578125,150.55152893066406 201.00167846679688,156.7675323486328 201.00167846679688,163.3715362548828z"></path></g></g><g opacity="1" transform="matrix(1,0,0,1,540,540)"><g opacity="1" transform="matrix(1,0,0,1,0,0)"><path fill="rgb(255,200,0)" fill-opacity="1" d=" M-84.90892028808594,255.45773315429688 C-84.90892028808594,255.45773315429688 -179.56446838378906,127.69473266601562 -179.56446838378906,127.69473266601562 C-184.13946533203125,122.66173553466797 -181.5294647216797,114.56373596191406 -174.87646484375,113.14973449707031 C-174.87646484375,113.14973449707031 -16.591999053955078,80.46700286865234 -16.591999053955078,80.46700286865234 C-16.591999053955078,80.46700286865234 177.60166931152344,198.4965362548828 177.60166931152344,198.4965362548828 C177.60166931152344,198.4965362548828 -67.42391967773438,260.4857482910156 -67.42391967773438,260.4857482910156 C-73.73392486572266,262.25274658203125 -80.50092315673828,260.3067321777344 -84.90892028808594,255.45773315429688z"></path></g></g><g opacity="1" transform="matrix(1,0,0,1,540,540)"><g opacity="1" transform="matrix(1,0,0,1,0,0)"><path fill="rgb(247,247,247)" fill-opacity="1" d=" M-164.29246520996094,123.94873046875 C-166.907470703125,121.14973449707031 -168.4354705810547,117.51373291015625 -168.6104736328125,113.69273376464844 C-168.6104736328125,113.69273376464844 -170.86546325683594,65.23973083496094 -170.86546325683594,65.23973083496094 C-170.86546325683594,65.23973083496094 -69.94192504882812,187.26072692871094 -69.94192504882812,187.26072692871094 C-69.94192504882812,187.26072692871094 -67.34969329833984,189.41778564453125 -67.34969329833984,189.41778564453125 C-67.34969329833984,189.41778564453125 151.07867431640625,138.86953735351562 151.07867431640625,138.86953735351562 C168.05467224121094,134.321533203125 184.80166625976562,146.92453002929688 185.1056671142578,164.49952697753906 C185.1056671142578,164.49952697753906 185.1056671142578,164.98753356933594 185.1056671142578,164.98753356933594 C185.1056671142578,177.1215362548828 176.9856719970703,187.81053161621094 164.27166748046875,191.3915252685547 C164.27166748046875,191.3915252685547 -62.847923278808594,245.62973022460938 -62.847923278808594,245.62973022460938 C-67.12792205810547,246.7957305908203 -71.70191955566406,245.5027313232422 -74.73792266845703,242.26773071289062 C-74.73792266845703,242.26773071289062 -164.29246520996094,123.94873046875 -164.29246520996094,123.94873046875z"></path></g></g><g opacity="1" transform="matrix(1,0,0,1,540,540)"><g opacity="1" transform="matrix(1,0,0,1,0,0)"><path fill="rgb(255,200,0)" fill-opacity="1" d=" M-77.971923828125,188.3007354736328 C-77.971923828125,188.3007354736328 -175.2274627685547,70.60773468017578 -175.2274627685547,70.60773468017578 C-180.3264617919922,65.55473327636719 -177.56446838378906,56.85073471069336 -170.4854736328125,55.660736083984375 C-170.4854736328125,55.660736083984375 28.849000930786133,4.789000034332275 28.849000930786133,4.789000034332275 C28.849000930786133,4.789000034332275 183.43167114257812,131.5055389404297 183.43167114257812,131.5055389404297 C183.43167114257812,131.5055389404297 159.7896728515625,136.47352600097656 159.7896728515625,136.47352600097656 C159.7896728515625,136.47352600097656 -61.00492477416992,192.64773559570312 -61.00492477416992,192.64773559570312 C-69.22563171386719,194.868408203125 -73.5199203491211,192.71372985839844 -77.971923828125,188.3007354736328z"></path></g></g></g><g transform="matrix(1,0,0,1,529.2227783203125,540.5)" opacity="1" style="display: block;"><g opacity="1" transform="matrix(1.020300030708313,0,0,1,0,0)"><path stroke-linecap="round" stroke-linejoin="miter" fill-opacity="0" stroke-miterlimit="4" stroke="rgb(244,144,0)" stroke-opacity="1" stroke-width="51" d=" M-44.165000915527344,147 C-44.165000915527344,147 -47.790000915527344,154.5 -47.790000915527344,154.5"></path></g></g><g transform="matrix(0.258819043636322,-0.9659258127212524,0.9659258127212524,0.258819043636322,519.6875,564.255126953125)" opacity="1" style="display: block;"><g opacity="1" transform="matrix(1.020300030708313,0,0,1,0,0)"><path stroke-linecap="round" stroke-linejoin="miter" fill-opacity="0" stroke-miterlimit="4" stroke="rgb(244,144,0)" stroke-opacity="1" stroke-width="51" d=" M-44.165000915527344,147 C-44.165000915527344,147 -47.790000915527344,154.5 -47.790000915527344,154.5"></path></g></g><g transform="matrix(0.9991710186004639,-0.04070952162146568,0.040709543973207474,0.9991705417633057,552.9406127929688,547.1983642578125)" opacity="1" style="display: block;"><path fill="rgb(88,204,2)" fill-opacity="1" d=" M189.16600036621094,39.77299880981445 C189.16600036621094,72.48300170898438 174.13400268554688,87.80599975585938 149.3090057373047,86.1709976196289 C124.48400115966797,84.53600311279297 99.26799774169922,66.56199645996094 99.26799774169922,33.85200119018555 C99.26799774169922,1.1419999599456787 116.1510009765625,-21.06800079345703 140.9759979248047,-19.433000564575195 C160.52000427246094,-7.374000072479248 185.55599975585938,8.730999946594238 189.16600036621094,39.77299880981445z"></path></g><g transform="matrix(1,0,0,0.9999995231628418,527.9727783203125,540.0000610351562)" opacity="1" style="display: block;"><path fill="rgb(88,204,2)" fill-opacity="1" d=" M6.223652362823486,-198.63800048828125 C32.99242401123047,-195.47491455078125 56.721954345703125,-218.73167419433594 99.56827545166016,-212.92605590820312 C185.23126220703125,-200.44654846191406 175.75616455078125,-119.49102020263672 168.95236206054688,-29.851261138916016 C162.30833435058594,24.34968376159668 155.44435119628906,153.4709930419922 0.09435675293207169,153.4709930419922 C-174.47264099121094,153.4709930419922 -157.78245544433594,-56.83807373046875 -147.47354125976562,-142.3504638671875 C-137.476318359375,-211.6485137939453 -78.51765441894531,-217.03280639648438 -53.11822509765625,-214.03158569335938 C-27.729156494140625,-211.03164672851562 -11.203985214233398,-200.69728088378906 6.223652362823486,-198.63800048828125z"></path></g><g transform="matrix(0.9987777471542358,-0.04942727088928223,0.049427296966314316,0.9987772703170776,551.7830200195312,547.818603515625)" opacity="1" style="display: block;"><path stroke-linecap="round" stroke-linejoin="miter" fill-opacity="0" stroke-miterlimit="10" stroke="rgb(79,186,0)" stroke-opacity="1" stroke-width="5" d=" M-114.62981414794922,39.09859085083008 C-99.24113464355469,62.242794036865234 -79.58512115478516,83.5245361328125 -58.891998291015625,95.74099731445312"></path></g><g transform="matrix(0.9963974952697754,0.08480613678693771,-0.0848061740398407,0.9963970184326172,526.9368286132812,525.5906982421875)" opacity="1" style="display: block;"><g opacity="1" transform="matrix(1,0,0,1,0,0)"><path fill="rgb(137,226,25)" fill-opacity="1" d=" M144.97799682617188,-109.97000122070312 C148.8520050048828,-100.33399963378906 148.02099609375,-85.25499725341797 143.57699584960938,-75.9219970703125 C153.42300415039062,-72.03299713134766 155.8679962158203,-49.4640007019043 155.8679962158203,-34.49300003051758 C155.8679962158203,-25.83099937438965 155.41799926757812,-5.677999973297119 151.1580047607422,18.704999923706055 C141.79800415039062,49.888999938964844 121.99400329589844,60.25899887084961 112.447998046875,61.823001861572266 C77.46600341796875,67.99099731445312 73.98999786376953,40.31700134277344 71.54000091552734,38.79899978637695 C71.54000091552734,38.79899978637695 38.65999984741211,41.39400100708008 38.65999984741211,41.39400100708008 C30.649999618530273,55.73099899291992 5.420000076293945,84.40399932861328 -31.420000076293945,84.40399932861328 C-77.45999908447266,84.40399932861328 -100.66999816894531,52.06399917602539 -103.57099914550781,9.406000137329102 C-107.12699890136719,-42.8849983215332 -97.95999908447266,-46.90299987792969 -84.04000091552734,-57.78200149536133 C-87.83999633789062,-79.54000091552734 -78.9800033569336,-88.9010009765625 -76.19999694824219,-90.6719970703125 C-73.41000366210938,-92.44300079345703 -64.80999755859375,-84.34700012207031 -53.93000030517578,-72.96199798583984 C-57.220001220703125,-88.14199829101562 -56.720001220703125,-106.86399841308594 -46.09000015258789,-106.86399841308594 C-44.790000915527344,-106.86399841308594 -40.81999969482422,-102.97000122070312 -34.939998626708984,-97.21099853515625 C-16.84000015258789,-79.46199798583984 17.166000366210938,-48.32600021362305 48.90599822998047,-54.555999755859375 C67.13600158691406,-58.132999420166016 92.51799774169922,-69.87100219726562 99.48799896240234,-94.19400024414062 C103.9280014038086,-109.697998046875 107.48799896240234,-122.10900115966797 111.947998046875,-122.10900115966797 C120.86799621582031,-122.10900115966797 126.99800109863281,-104.90399932861328 128.76800537109375,-96.04900360107422 C129.83799743652344,-98.19100189208984 130.75799560546875,-101.11499786376953 131.68800354003906,-104.0469970703125 C133.4980010986328,-109.7750015258789 135.30799865722656,-115.53099822998047 138.25799560546875,-115.53099822998047 C140.83799743652344,-115.53099822998047 143.1479949951172,-112.91999816894531 144.97799682617188,-109.97000122070312z"></path></g></g><g transform="matrix(0.9963974952697754,0.08480613678693771,-0.08525336533784866,1.0016511678695679,34.942657470703125,-61.374267578125)" opacity="1" style="display: block;"><g opacity="1" transform="matrix(1,0,0,1,540.4541625976562,540)"><g opacity="1" transform="matrix(1,0,0,1,0,0)"><path fill="rgb(244,144,0)" fill-opacity="1" d=" M45.617000579833984,33.64500045776367 C57.319000244140625,33.64500045776367 66.80599975585938,43.47100067138672 66.80599975585938,55.590999603271484 C66.80599975585938,67.71099853515625 57.319000244140625,77.53600311279297 45.617000579833984,77.53600311279297 C33.915000915527344,77.53600311279297 24.42799949645996,67.71099853515625 24.42799949645996,55.590999603271484 C24.42799949645996,43.47100067138672 33.915000915527344,33.64500045776367 45.617000579833984,33.64500045776367z"></path></g></g><g opacity="1" transform="matrix(1,0,0,1,540,540)"><g opacity="1" transform="matrix(1,0,0,1,0,0)"><path fill="rgb(255,194,0)" fill-opacity="1" d=" M76.56060028076172,47.929954528808594 C76.87460327148438,39.006954193115234 69.60399627685547,30.992000579833984 55.375999450683594,28.64900016784668 C38.14799880981445,25.812000274658203 24.312000274658203,41.72800064086914 23.20199966430664,48.46799850463867 C25.968000411987305,61.01100158691406 48.43896484375,66.61255645751953 59.77196502685547,68.49755096435547 C61.16496658325195,68.90155029296875 63.30977249145508,68.52764129638672 64.72149658203125,66.66603088378906 C68.71138763427734,61.71067810058594 76.35160064697266,54.000953674316406 76.56060028076172,47.929954528808594z"></path></g></g><g opacity="1" transform="matrix(1,0,0,1,540,540)"><g opacity="1" transform="matrix(1,0,0,1,0,0)"><path stroke-linecap="round" stroke-linejoin="miter" fill-opacity="0" stroke-miterlimit="4" stroke="rgb(255,222,0)" stroke-opacity="1" stroke-width="14.192" d=" M43.79999923706055,40.33000183105469 C46.13600158691406,39.106998443603516 52.152000427246094,37.34000015258789 57.59700012207031,40.05400085449219"></path></g></g></g><g clip-path="url(#__lottie_element_6412)" transform="matrix(0.9963974952697754,0.08480613678693771,-0.0848061740398407,0.9963970184326172,36.6702880859375,-58.08941650390625)" opacity="1" style="display: block;"><g transform="matrix(1,0,0,1,-2,0)" opacity="1" style="display: block;"><g opacity="1" transform="matrix(1,0,0,1,540,540)"><g opacity="1" transform="matrix(1,0,0,1,0,0)"><path fill="rgb(255,255,255)" fill-opacity="1" d=" M-80.5,-4.65500020980835 C-80.5,-21.100000381469727 -65.37200164794922,-44.88199996948242 -34.31399917602539,-44.88199996948242 C2.1050000190734863,-44.88199996948242 13.739999771118164,-18.06399917602539 13.739999771118164,-4.65500020980835 C13.739999771118164,-4.65500020980835 13.739999771118164,15.585000038146973 13.739999771118164,15.585000038146973 C13.739999771118164,51.63800048828125 -12.324000358581543,62.01100158691406 -34.31399917602539,62.01100158691406 C-71.54299926757812,62.01100158691406 -80.61000061035156,31.059999465942383 -80.5,15.585000038146973 C-80.5,15.585000038146973 -80.5,-4.65500020980835 -80.5,-4.65500020980835z"></path></g></g><g opacity="1" transform="matrix(1,0,0,1,540,540.0009765625)"><g opacity="1" transform="matrix(1,0,0,1,0,0)"><path fill="rgb(255,255,255)" fill-opacity="1" d=" M80.11100006103516,-16.600000381469727 C80.11100006103516,-44.891998291015625 92.01399993896484,-57.27799987792969 113.90799713134766,-60.64500045776367 C125.31600189208984,-62.400001525878906 141.79800415039062,-54.88199996948242 141.79800415039062,-28.763999938964844 C141.79800415039062,-18.534000396728516 141.3509979248047,-9.67199993133545 140.43099975585938,-2.007999897003174 C135.4029998779297,39.87300109863281 117.06099700927734,46.81700134277344 101.2020034790039,46.81700134277344 C86.67500305175781,46.81700134277344 80.11100006103516,31.701000213623047 80.11100006103516,19.535999298095703 C80.11100006103516,19.535999298095703 80.11100006103516,-16.600000381469727 80.11100006103516,-16.600000381469727z"></path></g></g></g></g><g transform="matrix(0.9963974952697754,0.08480613678693771,-0.0848061740398407,0.9963970184326172,31.57745361328125,-55.182861328125)" opacity="1" style="display: block;"><g opacity="1" transform="matrix(1,0,0,1,540,540)"><g opacity="1" transform="matrix(1,0,0,1,0,0)"><path fill="rgb(75,75,75)" fill-opacity="1" d=" M6.599999904632568,9.182999610900879 C6.599999904632568,9.182999610900879 6.599999904632568,27.792999267578125 6.599999904632568,27.792999267578125 C6.599999904632568,32.893001556396484 4.25,48.823001861572266 -13.760000228881836,48.823001861572266 C-31.75,48.823001861572266 -35.560001373291016,32.16299819946289 -35.560001373291016,27.792999267578125 C-35.560001373291016,27.792999267578125 -35.560001373291016,17.743000030517578 -35.560001373291016,17.743000030517578 C-35.72999954223633,16.743000030517578 -35.849998474121094,15.572999954223633 -35.90999984741211,14.243000030517578 C-37.18000030517578,-12.586999893188477 -21.899999618530273,-15.107000350952148 -21.899999618530273,-15.107000350952148 C-19.600000381469727,-15.817000389099121 -16.899999618530273,-16.226999282836914 -13.760000228881836,-16.226999282836914 C-2.009999990463257,-16.226999282836914 6.599999904632568,-4.186999797821045 6.599999904632568,9.182999610900879z"></path></g></g><g opacity="1" transform="matrix(1,0,0,1,540,540)"><g opacity="1" transform="matrix(1,0,0,1,0,0)"><path fill="rgb(75,75,75)" fill-opacity="1" d=" M90.91100311279297,-21.035999298095703 C93.72000122070312,-24.61199951171875 97.59200286865234,-27.320999145507812 102.77200317382812,-27.736000061035156 C113.87200164794922,-28.625 119.09400177001953,-20.489999771118164 119.89399719238281,-10.491999626159668 C120.69400024414062,-0.49399998784065247 122.322998046875,35.722999572753906 102.30000305175781,37.32600021362305 C86.55699920654297,38.58599853515625 86.4000015258789,26.575000762939453 86.31500244140625,19.86400032043457 C86.31099700927734,18.899999618530273 86.30000305175781,18.04599952697754 86.24500274658203,17.356000900268555 C85.93800354003906,13.517999649047852 86.11000061035156,8.477999687194824 85.77799987792969,4.333000183105469 C84.58300018310547,-14.470000267028809 90.91100311279297,-21.035999298095703 90.91100311279297,-21.035999298095703"></path></g></g></g><g mask="url(#__lottie_element_6398_1)" style="display: block;"><g transform="matrix(0.9963974952697754,0.08480613678693771,-0.0848061740398407,0.9963970184326172,31.57745361328125,-55.182861328125)" opacity="1"><g opacity="1" transform="matrix(1,0,0,1,541,537.5)"><g opacity="1" transform="matrix(1,0,0,1,0,0)"><path fill="rgb(255,255,255)" fill-opacity="1" d=" M-17.47800064086914,-8.616999626159668 C-17.47800064086914,1.4850000143051147 -25.66699981689453,9.673999786376953 -35.76900100708008,9.673999786376953 C-45.87099838256836,9.673999786376953 -54.06100082397461,1.4850000143051147 -54.06100082397461,-8.616999626159668 C-54.06100082397461,-18.7189998626709 -45.87099838256836,-26.908000946044922 -35.76900100708008,-26.908000946044922 C-25.66699981689453,-26.908000946044922 -17.47800064086914,-18.7189998626709 -17.47800064086914,-8.616999626159668z"></path></g></g><g opacity="1" transform="matrix(1,0,0,1,541,537.5)"><g opacity="1" transform="matrix(1,0,0,1,0,0)"><path fill="rgb(255,255,255)" fill-opacity="1" d=" M96.04299926757812,-17.836999893188477 C96.74099731445312,-9.11400032043457 90.23600006103516,-1.4759999513626099 81.51300048828125,-0.777999997138977 C72.79000091552734,-0.07999999821186066 65.1520004272461,-6.585000038146973 64.4540023803711,-15.307999610900879 C63.75600051879883,-24.0310001373291 70.26100158691406,-31.66900062561035 78.98400115966797,-32.367000579833984 C87.70700073242188,-33.064998626708984 95.34500122070312,-26.559999465942383 96.04299926757812,-17.836999893188477z"></path></g></g></g></g><g style="display: block;" transform="matrix(0.9925565719604492,-0.1217847615480423,0.12178482115268707,0.992556095123291,523.9122924804688,548.3912963867188)" opacity="1"><g opacity="1" transform="matrix(1,0,0,1,0,0)"><path fill="rgb(137,226,25)" fill-opacity="1" d=" M-88,-8 C-95,-2 -76,42 -42,43 C-8,44 27,31 13,16 C-14.293000221252441,-13.241999626159668 -69,-16 -88,-8z"></path></g><g opacity="1" transform="matrix(1,0,0,1,0,0)"><path fill="rgb(137,226,25)" fill-opacity="1" d=" M144.5,13.5 C126.5,6.5 86.5,10.5 75,22.5 C70,47.5 103,60 120,54 C137,48 154.5,20 144.5,13.5z"></path></g></g><g style="display: none;" transform="matrix(0.9999966025352478,0.0025521183852106333,-0.0025786382611840963,1.0009145736694336,540.8868408203125,539.8325805664062)" opacity="1"><g opacity="1" transform="matrix(1,0,0,1,0,0)"><path stroke-linecap="round" stroke-linejoin="miter" fill-opacity="0" stroke-miterlimit="4" stroke="rgb(80,187,1)" stroke-opacity="1" stroke-width="6" d=" M9.5,21 C-16,37 -51,40 -85,21"></path></g><g opacity="1" transform="matrix(1,0,0,1,0,0)"><path stroke-linecap="round" stroke-linejoin="miter" fill-opacity="0" stroke-miterlimit="4" stroke="rgb(80,187,1)" stroke-opacity="1" stroke-width="6" d=" M75.5,14 C98.5,30.5 129.5,18.5 137,-2"></path></g></g><g style="display: none;" transform="matrix(0.999925971031189,0.012167021632194519,-0.012167024426162243,0.9999254941940308,546.6284790039062,545.4530639648438)" opacity="1"><path fill="rgb(88,204,2)" fill-opacity="1" d=" M-122.29971313476562,45.05568313598633 C-97.04191589355469,61.60028076171875 -54.32256317138672,72.10152435302734 -54.32256317138672,72.10152435302734 C-34.50346755981445,76.91114807128906 -34.28169631958008,98.08238220214844 -49.360084533691406,102.42456817626953 C-190.15225219726562,161.5524139404297 -184.1699981689453,22.59567642211914 -146.71099853515625,10.50567626953125 C-146.71099853515625,10.50567626953125 -136.45440673828125,12.547762870788574 -122.29971313476562,45.05568313598633z"></path></g><g style="display: block;" transform="matrix(1,0,0,1,540,540)" opacity="1"><g opacity="0" transform="matrix(1,0,0,1,0,0)"><path fill="rgb(247,247,247)" fill-opacity="1" d=" M156,25.25 C150,49.25 134.12899780273438,97.25 134.12899780273438,97.25 C134.12899780273438,97.25 70.19000244140625,88.5 70.19000244140625,88.5 C70.19000244140625,88.5 104.25,23.25 156,25.25z"></path></g></g><g style="display: block;" transform="matrix(0.9826494455337524,-0.22273246943950653,0.22111384570598602,0.9755139946937561,530.35400390625,551.3474731445312)" opacity="1"><g opacity="1" transform="matrix(1,0,0,1,0,0)"><path fill="rgb(247,247,247)" fill-opacity="1" d=" M-37.97513961791992,40.84794235229492 C-36.47513961791992,59.59794235229492 -14.821999549865723,129.55999755859375 -14.821999549865723,129.55999755859375 C-14.821999549865723,129.55999755859375 73.08899688720703,93.41699981689453 73.08899688720703,93.41699981689453 C73.08899688720703,93.41699981689453 10.956415176391602,24.603851318359375 -37.97513961791992,40.84794235229492z"></path></g></g><g transform="matrix(0.9991710186004639,-0.04070952162146568,0.040709543973207474,0.9991705417633057,552.940185546875,547.1983032226562)" opacity="1" style="display: block;"><g opacity="1" transform="matrix(1,0,0,1,0,0)"><path fill="rgb(247,247,247)" fill-opacity="1" d=" M63.141998291015625,83.24500274658203 C63.141998291015625,83.24500274658203 77.56199645996094,37.22800064086914 135.27999877929688,17.83099937438965 C135.27999877929688,17.83099937438965 157.6230010986328,12.029999732971191 158.46200561523438,25.243000030517578 C159.82200622558594,35.18299865722656 87.02400207519531,96.9209976196289 87.02400207519531,96.9209976196289 C87.02400207519531,96.9209976196289 63.141998291015625,83.24500274658203 63.141998291015625,83.24500274658203z"></path></g></g><g transform="matrix(0.9991670250892639,-0.04070936143398285,0.040709543973207474,0.9991705417633057,552.9403686523438,547.1983032226562)" opacity="1" style="display: block;"><g opacity="1" transform="matrix(1,0,0,1,0,0)"><path fill="rgb(247,247,247)" fill-opacity="1" d=" M69.4280014038086,84.78600311279297 C69.4280014038086,84.78600311279297 27.690000534057617,42.02899932861328 -33.16600036621094,44.06700134277344 C-33.16600036621094,44.06700134277344 -68.0989990234375,45.22700119018555 -71.36599731445312,65.11900329589844 C-69.16000366210938,74.90599822998047 51.84600067138672,105.95800018310547 51.84600067138672,105.95800018310547 C51.84600067138672,105.95800018310547 69.4280014038086,84.78600311279297 69.4280014038086,84.78600311279297z"></path></g></g><g transform="matrix(0.9991710186004639,-0.04070952162146568,0.040709543973207474,0.9991705417633057,552.940185546875,547.1983032226562)" opacity="1" style="display: block;"><g opacity="1" transform="matrix(1,0,0,1,0,0)"><path fill="rgb(43,112,201)" fill-opacity="1" d=" M72.6240005493164,181.75599670410156 C72.6240005493164,181.75599670410156 143.34300231933594,123.45700073242188 143.34300231933594,123.45700073242188 C144.39100646972656,122.6449966430664 145.10299682617188,121.4749984741211 145.34100341796875,120.1709976196289 C145.34100341796875,120.1709976196289 162.57899475097656,25.83099937438965 162.57899475097656,25.83099937438965 C163.4709930419922,20.948999404907227 157.84100341796875,17.56599998474121 153.94900512695312,20.645000457763672 C153.94900512695312,20.645000457763672 77.80599975585938,80.88700103759766 77.80599975585938,80.88700103759766 C77.80599975585938,80.88700103759766 72.6240005493164,181.75599670410156 72.6240005493164,181.75599670410156z"></path></g></g><g transform="matrix(0.9991670250892639,-0.04070936143398285,0.040709543973207474,0.9991705417633057,552.9403686523438,547.1983032226562)" opacity="1" style="display: block;"><g opacity="1" transform="matrix(1,0,0,1,0,0)"><path fill="rgb(43,112,201)" fill-opacity="1" d=" M-65.41200256347656,54.98099899291992 C-65.41200256347656,54.98099899291992 52.4739990234375,84.6050033569336 52.4739990234375,84.6050033569336 C52.4739990234375,84.6050033569336 43.95899963378906,186.19700622558594 43.95899963378906,186.19700622558594 C43.95899963378906,186.19700622558594 -76.91000366210938,160.947998046875 -76.91000366210938,160.947998046875 C-79.59300231933594,160.38800048828125 -81.42500305175781,157.89999389648438 -81.16500091552734,155.1719970703125 C-81.16500091552734,155.1719970703125 -72.0790023803711,59.68899917602539 -72.0790023803711,59.68899917602539 C-71.76699829101562,56.409000396728516 -68.60700225830078,54.178001403808594 -65.41200256347656,54.98099899291992z"></path></g></g><g transform="matrix(0.9991710186004639,-0.04070952162146568,0.040709543973207474,0.9991705417633057,552.940185546875,547.1983032226562)" opacity="1" style="display: block;"><g opacity="1" transform="matrix(1,0,0,1,0,0)"><path fill="rgb(43,112,201)" fill-opacity="1" d=" M51.69200134277344,84.78900146484375 C51.69200134277344,84.78900146484375 43.06800079345703,186.03199768066406 43.06800079345703,186.03199768066406 C43.06800079345703,189.84300231933594 46.15800094604492,191.86900329589844 49.96900177001953,191.86900329589844 C49.96900177001953,191.86900329589844 66.91799926757812,189.74000549316406 66.91799926757812,189.74000549316406 C70.72899627685547,189.74000549316406 73.81900024414062,186.6490020751953 73.81900024414062,182.83799743652344 C73.81900024414062,182.83799743652344 83.072998046875,87.2239990234375 83.072998046875,87.2239990234375 C83.072998046875,87.2239990234375 51.69200134277344,84.78900146484375 51.69200134277344,84.78900146484375z"></path></g></g><g transform="matrix(0.9991710186004639,-0.04070952162146568,0.040709543973207474,0.9991705417633057,552.940185546875,547.1983032226562)" opacity="1" style="display: block;"><g opacity="1" transform="matrix(1,0,0,1,0,0)"><path fill="rgb(247,247,247)" fill-opacity="1" d=" M52.013999938964844,84.65599822998047 C52.013999938964844,84.65599822998047 52.013999938964844,90.0199966430664 52.013999938964844,90.0199966430664 C52.013999938964844,93.83100128173828 55.104000091552734,95.85700225830078 58.915000915527344,95.85700225830078 C58.915000915527344,95.85700225830078 75.86399841308594,93.72799682617188 75.86399841308594,93.72799682617188 C79.67500305175781,93.72799682617188 82.76599884033203,90.63800048828125 82.76599884033203,86.8270034790039 C82.76599884033203,86.8270034790039 79.5719985961914,79.09200286865234 79.5719985961914,79.09200286865234 C79.5719985961914,79.09200286865234 52.013999938964844,84.65599822998047 52.013999938964844,84.65599822998047z"></path></g></g><g transform="matrix(0.9987777471542358,-0.04942727088928223,0.049427296966314316,0.9987772703170776,551.7830200195312,547.818603515625)" opacity="1" style="display: block;"><path fill="rgb(88,204,2)" fill-opacity="1" d=" M-113.51100158691406,49.52199935913086 C-95.73300170898438,76.90899658203125 -59.891998291015625,98.74099731445312 -59.891998291015625,98.74099731445312 C-41.724998474121094,108.38500213623047 -54.28900146484375,130.85499572753906 -70,132.55299377441406 C-181.09898376464844,133.83616638183594 -195.6927032470703,22.63319969177246 -154.05184936523438,6.467756748199463 C-154.05184936523438,6.467756748199463 -118.70500183105469,33.00699996948242 -113.51100158691406,49.52199935913086z"></path></g><g transform="matrix(0.9991710186004639,-0.04070952162146568,0.040709543973207474,0.9991705417633057,552.9406127929688,547.1983642578125)" opacity="1" style="display: block;"><g opacity="1" transform="matrix(1,0,0,1,0,0)"><path fill="rgb(88,204,2)" fill-opacity="1" d=" M180.32400512695312,71.677001953125 C178.14599609375,75.06900024414062 173.84800720214844,80.37899780273438 166.83999633789062,83.5479965209961 C156.9739990234375,87.64800262451172 146.66799926757812,88.54199981689453 141.8820037841797,82.33699798583984 C139.20199584960938,78.18599700927734 142.3679962158203,72.08799743652344 147.8040008544922,63.9109992980957 C147.8040008544922,63.9109992980957 170.6790008544922,31.39299964904785 170.6790008544922,31.39299964904785 C170.6790008544922,31.39299964904785 180.32400512695312,71.677001953125 180.32400512695312,71.677001953125z"></path></g></g></g></svg>